G04 DipTrace Beta 2.3.9.1*
%INTopMask00metric.gbr*%
%MOMM*%
%ADD56C,0.9*%
%ADD57C,3.18*%
%ADD63R,5.7X2.2*%
%ADD65C,2.2*%
%ADD67R,0.911X2.232*%
%ADD69R,2.35X3.45*%
%ADD71R,2.35X1.15*%
%ADD73R,3.45X2.35*%
%ADD75R,1.15X2.35*%
%ADD77C,1.7*%
%ADD81R,1.1X2.4*%
%ADD82R,0.7X2.0*%
%ADD83R,1.6X1.5*%
%ADD85R,1.6X1.7*%
%ADD87R,0.6X2.0*%
%ADD89C,1.7*%
%ADD91R,1.7X1.7*%
%ADD93R,2.0X0.7*%
%ADD96R,1.4X2.7*%
%ADD104R,1.47X1.47*%
%ADD106C,1.47*%
%ADD108R,2.0X1.8*%
%ADD110R,1.8X2.0*%
%ADD112C,3.1*%
%ADD114R,3.1X3.1*%
%ADD116R,1.2X3.4*%
%FSLAX53Y53*%
G04*
G71*
G90*
G75*
G01*
%LNTopMask*%
%LPD*%
D116*
X8522Y34261D3*
X4522D3*
Y27461D3*
X8522D3*
D114*
X3052Y11437D3*
D112*
Y24137D3*
D116*
X12032Y11047D3*
X8032D3*
Y4247D3*
X12032D3*
D110*
X31402Y24957D3*
X28602D3*
X28012Y46347D3*
X30812D3*
D108*
X39892Y37047D3*
Y34247D3*
X19812Y33507D3*
Y36307D3*
D110*
X44475Y78854D3*
X47275D3*
D108*
X50962Y36837D3*
Y39637D3*
X44772Y66687D3*
Y69487D3*
X46992Y66687D3*
Y69487D3*
X33992Y86990D3*
Y84190D3*
X18012Y86980D3*
Y84180D3*
X42002Y86990D3*
Y84190D3*
X26042Y86990D3*
Y84190D3*
X50012Y86980D3*
Y84180D3*
X10022Y86980D3*
Y84180D3*
X57852Y86980D3*
Y84180D3*
D106*
X53705Y3837D3*
D104*
X56245D3*
D110*
X56235Y10050D3*
X53435D3*
D56*
X53948Y42707D3*
Y38307D3*
D108*
X49662Y29407D3*
Y32207D3*
X10762Y41077D3*
Y38277D3*
X46682Y29467D3*
Y32267D3*
X10762Y44367D3*
Y47167D3*
G36*
X43763Y70706D2*
X43761Y72706D1*
X45561Y72708D1*
X45563Y70708D1*
X43763Y70706D1*
G37*
G36*
X46563Y70709D2*
X46561Y72709D1*
X48361Y72710D1*
X48363Y70710D1*
X46563Y70709D1*
G37*
D110*
X55652Y54777D3*
X58452D3*
X52652D3*
X49852D3*
X55652Y57777D3*
X58452D3*
X52652D3*
X49852D3*
X55652Y66777D3*
X58452D3*
X52652Y60777D3*
X49852D3*
X55652Y63777D3*
X58452D3*
X52652D3*
X49852D3*
X55652Y60777D3*
X58452D3*
X52652Y66777D3*
X49852D3*
D108*
X45818Y15790D3*
Y18590D3*
X8752Y20014D3*
Y22814D3*
X6358Y20010D3*
Y22810D3*
X20135Y20687D3*
Y17887D3*
D110*
X15228Y17967D3*
X18028D3*
D108*
X13172Y22817D3*
Y20017D3*
G36*
X14175Y28007D2*
X12175D1*
Y29807D1*
X14175D1*
Y28007D1*
G37*
G36*
Y25207D2*
X12175D1*
Y27007D1*
X14175D1*
Y25207D1*
G37*
D110*
X25752Y17780D3*
X28552D3*
X34252Y17770D3*
X31452D3*
D108*
X10762Y34990D3*
Y32190D3*
X13178Y34994D3*
Y32194D3*
D96*
X6732Y49667D3*
X4232D3*
X1732D3*
Y55167D3*
X4232D3*
X6732D3*
D82*
X34002Y40787D3*
X33202D3*
X32402D3*
X31602D3*
X30802D3*
X30002D3*
X29202D3*
X28402D3*
X27602D3*
X26802D3*
X26002D3*
D93*
X24302Y39087D3*
Y38287D3*
Y37487D3*
Y36687D3*
Y35887D3*
Y35087D3*
Y34287D3*
Y33487D3*
Y32687D3*
Y31887D3*
Y31087D3*
D82*
X26002Y29387D3*
X26802D3*
X27602D3*
X28402D3*
X29202D3*
X30002D3*
X30802D3*
X31602D3*
X32402D3*
X33202D3*
X34002D3*
D93*
X35702Y31087D3*
Y31887D3*
Y32687D3*
Y33487D3*
Y34287D3*
Y35087D3*
Y35887D3*
Y36687D3*
Y37487D3*
Y38287D3*
Y39087D3*
D91*
X36352Y48607D3*
D89*
Y46067D3*
Y43527D3*
Y40987D3*
D87*
X48612Y40977D3*
X47962D3*
X47312D3*
X46662D3*
Y35177D3*
X47312D3*
X47962D3*
X48612D3*
D85*
X47652Y50957D3*
D83*
Y47247D3*
D85*
Y44457D3*
X57852D3*
D83*
Y47247D3*
D85*
Y50957D3*
D81*
X50102Y75067D3*
X51372D3*
X52642D3*
X53912D3*
D89*
X43972Y53667D3*
X41432D3*
X38892D3*
X36352D3*
X33812D3*
X31272D3*
X28732D3*
X26192D3*
X23652D3*
X21112D3*
X18572D3*
X16032D3*
D91*
X38892Y81607D3*
D77*
X36352D3*
X33812D3*
X31272D3*
X28732D3*
X26192D3*
X23652D3*
X21112D3*
D91*
X57452Y72497D3*
D89*
Y75037D3*
Y77577D3*
Y80117D3*
X16022Y48587D3*
Y46047D3*
Y43507D3*
Y40967D3*
Y38427D3*
Y35887D3*
D75*
X3022Y73712D3*
X5322D3*
X7622D3*
D73*
X5322Y79512D3*
D71*
X9312Y65022D3*
Y62722D3*
Y60422D3*
D69*
X15112Y62722D3*
D67*
X7602Y85226D3*
Y90126D3*
X6002D3*
Y85226D3*
X4402Y85238D3*
Y90126D3*
X15602Y85226D3*
Y90126D3*
X14002D3*
Y85226D3*
X12402Y85238D3*
Y90126D3*
X23602Y85226D3*
Y90126D3*
X22002D3*
Y85226D3*
X20402Y85238D3*
Y90126D3*
X31602Y85226D3*
Y90126D3*
X30002D3*
Y85226D3*
X28402Y85238D3*
Y90126D3*
X39602Y85226D3*
Y90126D3*
X38002D3*
Y85226D3*
X36402Y85238D3*
Y90126D3*
X47602Y85226D3*
Y90126D3*
X46002D3*
Y85226D3*
X44402Y85238D3*
Y90126D3*
X55602Y85226D3*
Y90126D3*
X54002D3*
Y85226D3*
X52402Y85238D3*
Y90126D3*
D89*
X16032Y33347D3*
Y30807D3*
Y28267D3*
Y25727D3*
Y23187D3*
Y20647D3*
X43972Y20667D3*
Y23207D3*
Y25747D3*
Y28287D3*
Y30827D3*
Y33367D3*
Y35907D3*
Y38447D3*
Y40987D3*
Y43527D3*
Y46067D3*
Y48607D3*
D65*
X25112Y8817D3*
X27402D3*
X29692D3*
X31982D3*
X34272D3*
X35423Y11357D3*
X33133D3*
X30843D3*
X28553D3*
X26263D3*
X25112Y13897D3*
X27402D3*
X29692D3*
X31982D3*
X34272D3*
D57*
X17467Y11355D3*
X42460Y11357D3*
D63*
X34752Y21387D3*
X25252D3*
M02*
